<?xml version="1.0" encoding="UTF-8"?>
<svg version="1.1" xmlns="http://www.w3.org/2000/svg" width="1024" height="1024">
<path d="M0 0 C337.92 0 675.84 0 1024 0 C1024 337.92 1024 675.84 1024 1024 C686.08 1024 348.16 1024 0 1024 C0 686.08 0 348.16 0 0 Z " fill="#3BBAB7" transform="translate(0,0)"/>
<path d="M0 0 C1.22740872 -0.00467997 2.45481745 -0.00935994 3.71942037 -0.01418173 C7.09591297 -0.0240171 10.47189881 -0.02055959 13.8483597 -0.01122308 C17.50144216 -0.00439889 21.15448227 -0.01493037 24.80755615 -0.02316284 C31.95160546 -0.03646622 39.09555994 -0.03363775 46.23961288 -0.02492492 C52.04781578 -0.0181359 57.85599219 -0.01723691 63.66419792 -0.02049637 C64.90654405 -0.02118592 64.90654405 -0.02118592 66.17398809 -0.0218894 C67.85677391 -0.02284862 69.53955972 -0.02382126 71.22234552 -0.02480717 C86.98212369 -0.03335098 102.74184941 -0.02354252 118.50161897 -0.00740607 C132.01155783 0.00599868 145.52141935 0.00366577 159.03135681 -0.01016235 C174.73822868 -0.02623173 190.44505466 -0.03252971 206.15193361 -0.02332556 C207.8280493 -0.02236996 209.50416499 -0.02142685 211.18028069 -0.02049637 C212.41715233 -0.01980213 212.41715233 -0.01980213 213.67901127 -0.01909386 C219.47784272 -0.01650823 225.27664495 -0.0208657 231.07547188 -0.02793503 C238.14565173 -0.03636522 245.21573171 -0.03403793 252.28590018 -0.0180928 C255.89022062 -0.01023084 259.49437479 -0.00708285 263.09869385 -0.01704025 C267.01177125 -0.02768684 270.92457881 -0.01493908 274.83764648 0 C276.53362562 -0.01003825 276.53362562 -0.01003825 278.26386696 -0.02027929 C295.0470985 0.10380505 304.42633816 7.16109159 315.86387634 18.64755249 C318.83289686 21.67910768 321.70289157 24.75847393 324.45445251 27.98886108 C328.87755357 33.06096883 333.63924937 37.77121689 338.41783142 42.50595093 C339.37784517 43.46154463 340.33755595 44.41744277 341.29698181 45.37362671 C344.31359512 48.37892643 347.33414738 51.38024704 350.35533142 54.38095093 C353.86203293 57.86388104 357.36700608 61.34851595 360.86775208 64.83743286 C362.25418482 66.21748226 363.6437044 67.59442837 365.03330994 68.97128296 C369.41799273 73.339081 373.62773882 77.76910226 377.65873718 82.46395874 C380.70926002 85.91076311 384.01294363 89.0999951 387.30064392 92.31845093 C388.80483833 93.8051386 390.30873574 95.29212682 391.81236267 96.77938843 C394.15040578 99.08646734 396.49069864 101.39111402 398.83628845 103.69052124 C401.12295525 105.93463873 403.39987928 108.18828528 405.67564392 110.44345093 C406.37158661 111.12077271 407.0675293 111.79809448 407.78456116 112.49594116 C414.25397352 118.9313775 419.81356534 125.91175636 420.60256958 135.33320618 C420.60043205 136.88039085 420.60043205 136.88039085 420.59825134 138.45883179 C420.60132797 139.63702988 420.6044046 140.81522797 420.60757446 142.02912903 C420.59679619 143.91837852 420.59679619 143.91837852 420.58580017 145.84579468 C420.58534195 147.15246597 420.58488373 148.45913727 420.58441162 149.80540466 C420.58285225 152.56493491 420.57460619 155.32433443 420.56114197 158.08383179 C420.54416982 161.60519652 420.54032759 165.12641772 420.54108715 168.64781857 C420.54074836 172.0263295 420.53189971 175.40479427 420.52330017 178.78329468 C420.52218735 180.04077011 420.52107452 181.29824554 420.51992798 182.59382629 C420.43606603 198.12245062 420.43606603 198.12245062 417.26548767 201.81454468 C416.30513611 202.66145874 415.34478455 203.5083728 414.35533142 204.38095093 C413.15438951 205.63112017 411.9665993 206.89399545 410.78892517 208.16610718 C410.14391052 208.85648071 409.49889587 209.54685425 408.83433533 210.25814819 C408.16063904 210.9792981 407.48694275 211.700448 406.79283142 212.44345093 C401.73895487 217.82621947 396.66899179 223.19010413 391.48033142 228.44345093 C390.98718445 228.94948853 390.49403748 229.45552612 389.98594666 229.97689819 C388.81456183 231.15161614 387.58969036 232.27259057 386.35533142 233.38095093 C385.69533142 233.38095093 385.03533142 233.38095093 384.35533142 233.38095093 C384.35168579 232.40455658 384.34804016 231.42816223 384.34428406 230.42218018 C384.30731059 221.21154459 384.24951226 212.00124261 384.17142868 202.79086113 C384.13195324 198.05590319 384.0997651 193.32113125 384.08433533 188.58602905 C384.06916915 184.01463731 384.03472442 179.44375688 383.9870224 174.87259293 C383.97220818 173.13037694 383.96429038 171.38808794 383.96344757 169.64580917 C383.96107622 167.20133988 383.93398503 164.75828174 383.90122986 162.3140564 C383.90626022 161.59691971 383.91129059 160.87978302 383.91647339 160.14091492 C383.81286372 155.12928947 382.87828533 151.99190134 379.35533142 148.38095093 C376.32292683 147.79527584 374.08560792 147.61971886 371.057724 147.70321655 C370.22303589 147.70222458 369.38834778 147.7012326 368.52836609 147.70021057 C366.71733498 147.70184167 364.90627583 147.71723508 363.09545326 147.74476624 C360.22304756 147.78760081 357.35270833 147.79308613 354.48001099 147.78878784 C347.34298918 147.78586111 340.20677788 147.84728906 333.0700531 147.9067688 C327.04424752 147.95457373 321.0193036 147.97775238 314.99330711 147.96876526 C312.17372529 147.97459982 309.35614838 148.01622723 306.53692627 148.05929565 C291.17364264 148.14493268 291.17364264 148.14493268 284.92202759 143.03268433 C278.85648361 136.63791437 277.20795061 131.47982949 277.21348572 122.75033569 C277.20827408 121.42795395 277.20827408 121.42795395 277.20295715 120.07885742 C277.1956033 118.16364231 277.19025594 116.24841869 277.18666649 114.33319283 C277.17950475 111.30313815 277.16384131 108.27324575 277.14532471 105.24324036 C277.0928341 96.62795199 277.04485278 88.01275328 277.02940369 79.39730835 C277.01933611 74.12875099 276.99004512 68.86060283 276.94808388 63.59220695 C276.93575383 61.58317087 276.93065626 59.57407704 276.93288231 57.56500435 C276.93522884 54.75654353 276.9131194 51.94926236 276.88536072 49.14096069 C276.89196213 48.30913773 276.89856354 47.47731476 276.90536499 46.62028503 C276.85296089 43.39705163 276.70369134 40.94956695 274.99930477 38.16755486 C270.77290323 35.31166162 266.52633526 35.83402538 261.539505 35.87974548 C260.42424962 35.87421109 259.30899423 35.86867669 258.15994322 35.86297458 C254.40893049 35.84932116 250.65857774 35.86436373 246.90757751 35.87924194 C244.22372094 35.87546034 241.53990901 35.87011445 238.85606384 35.86286926 C232.31327325 35.8489221 225.77067543 35.85650508 219.22789399 35.87154485 C211.60511584 35.88839986 203.9823858 35.88519504 196.35959478 35.88145076 C182.75217769 35.87556886 169.14485305 35.88975342 155.53746033 35.91439819 C142.3434146 35.93829159 129.14949254 35.94541391 115.95542908 35.93490601 C101.58645499 35.92348287 87.21753815 35.92158616 72.84856474 35.9360041 C71.31444971 35.9375299 69.78033468 35.93905026 68.24621964 35.94056511 C67.11405092 35.94170183 67.11405092 35.94170183 65.95901012 35.94286152 C60.65068267 35.94759579 55.34238085 35.94575878 50.0340538 35.94149971 C43.55657796 35.93655993 37.07921882 35.94261478 30.60176961 35.96239401 C27.29925232 35.97223133 23.99694749 35.97578917 20.69441605 35.9695015 C17.10710878 35.96352922 13.52032031 35.97609226 9.93305969 35.99327087 C8.38166528 35.98425581 8.38166528 35.98425581 6.79892957 35.97505862 C-4.4744533 36.07295682 -15.07044466 39.24406809 -23.46498108 47.08016968 C-24.98779777 48.78281648 -26.33654255 50.50926118 -27.64466858 52.38095093 C-28.22861389 53.21432983 -28.22861389 53.21432983 -28.82435608 54.06454468 C-33.33104125 61.18642308 -33.94464663 69.19859035 -33.90193748 77.43813133 C-33.90544356 78.30797932 -33.90894963 79.17782731 -33.91256195 80.07403433 C-33.92184099 82.97900662 -33.91696168 85.88377689 -33.91209412 88.78875732 C-33.91583212 90.89645984 -33.92043424 93.00416098 -33.92582476 95.11185992 C-33.93805129 100.89650916 -33.9377947 106.68110054 -33.93543601 112.46575975 C-33.93502777 118.70718813 -33.94606764 124.94859797 -33.95555115 131.1900177 C-33.97215954 143.41471757 -33.97768652 155.63939112 -33.9787759 167.86409996 C-33.97969553 177.79991202 -33.983815 187.73571784 -33.99017715 197.67152786 C-33.99197227 200.53308983 -33.9937519 203.39465181 -33.99552691 206.25621378 C-33.99596901 206.96763196 -33.9964111 207.67905014 -33.9968666 208.41202644 C-34.00917164 228.41754347 -34.01706805 248.42305834 -34.01618004 268.42857933 C-34.0161333 269.5595344 -34.0161333 269.5595344 -34.01608562 270.71333705 C-34.01591941 274.5346487 -34.01572133 278.35596035 -34.01551621 282.17727201 C-34.01547632 282.93617995 -34.01543643 283.69508789 -34.01539533 284.47699304 C-34.01531445 286.0116885 -34.01523086 287.54638395 -34.01514454 289.08107941 C-34.01391887 312.96165988 -34.0289366 336.84218358 -34.05628967 360.7227478 C-34.08701744 387.56056154 -34.1042218 414.39833797 -34.10236323 441.23617041 C-34.10221397 444.09836109 -34.10211656 446.96055178 -34.1020546 449.82274246 C-34.10201963 450.87983707 -34.10201963 450.87983707 -34.10198396 451.95828713 C-34.10192245 463.29309677 -34.11468723 474.62785706 -34.13191913 485.96265203 C-34.14888086 497.35540033 -34.15050229 508.74805685 -34.13770048 520.14081787 C-34.13116371 526.31127027 -34.13107958 532.48154397 -34.14840698 538.65197945 C-34.16411062 544.30226347 -34.16130145 549.9522267 -34.14383872 555.60250278 C-34.14076293 557.64481308 -34.14442294 559.68714716 -34.15555887 561.72942941 C-34.22607228 575.58031644 -33.73142913 587.78169908 -23.64466858 598.38095093 C-16.35335293 605.02483474 -7.43640311 609.53613759 2.52127075 609.47860718 C3.56553223 609.47538956 4.6097937 609.47217194 5.68569946 609.46885681 C6.82602127 609.46047287 7.96634308 609.45208893 9.14122009 609.44345093 C11.63944406 609.43400575 14.13766902 609.42482209 16.63589478 609.41586304 C17.97481488 609.40953621 19.31373484 609.40317785 20.65265465 609.39678955 C24.80147615 609.37880459 28.95020563 609.37687091 33.09906006 609.37924194 C33.80018911 609.3796111 34.50131816 609.37998026 35.22369355 609.3803606 C37.38280738 609.38167823 39.54192092 609.38323555 41.70103455 609.38485718 C50.63104906 609.39156146 59.56048078 609.38677831 68.49034119 609.3296814 C75.00783739 609.2881203 81.5245133 609.27851911 88.04209691 609.30579185 C91.4875386 609.31899898 94.93127964 609.31632941 98.3765316 609.27474976 C102.22583003 609.2286883 106.07297769 609.25329511 109.92247009 609.28329468 C111.05267075 609.25871689 112.1828714 609.2341391 113.34732056 609.20881653 C119.69545717 609.32482532 122.89057804 610.24705659 127.44683838 614.80551147 C128.75672893 616.32459909 130.06052897 617.84898257 131.35533142 619.38095093 C140.9426118 626.82370806 149.4088842 629.66148055 161.43736267 629.87704468 C168.96558061 628.92382067 175.88181297 626.25366304 182.57318306 622.71303558 C203.80702018 611.5043517 224.24839876 608.94959139 247.92173767 609.05673218 C248.64566822 609.06000818 249.36959876 609.06328418 250.11546659 609.06665945 C259.09216635 609.11979329 268.06471295 609.29985467 277.03851449 609.52671516 C289.23291958 609.83307505 301.43011417 609.99231712 313.62723774 610.14724988 C317.88297749 610.20406978 322.13692877 610.28864265 326.39161026 610.39893782 C329.65468811 610.47982546 332.91825481 610.53552851 336.18174744 610.59701538 C337.32830811 610.63496216 338.47486877 610.67290894 339.65617371 610.71200562 C351.8552762 610.89300053 363.2338581 607.76501165 372.35533142 599.38095093 C377.69882592 593.37078226 380.64755235 587.19732436 382.35533142 579.38095093 C382.52722488 578.65374847 382.69911835 577.92654602 382.8762207 577.17730713 C383.44572864 573.85334256 383.50318205 570.68826859 383.52891541 567.31503296 C383.53560242 566.62328979 383.54228943 565.93154663 383.54917908 565.21884155 C383.56317774 563.72329556 383.57508806 562.22772885 383.58512688 560.73215103 C383.60162103 558.3606029 383.62486188 555.9892079 383.65002441 553.61773682 C383.72056832 546.87726552 383.78084283 540.1367325 383.83213806 533.39608765 C383.86403597 529.26645145 383.90533524 525.13699411 383.95233345 521.00750351 C383.9682847 519.43914903 383.98063777 517.87075347 383.98924065 516.30234146 C384.00147773 514.10326346 384.02566082 511.90460153 384.05235291 509.70565796 C384.06266037 508.457211 384.07296783 507.20876404 384.08358765 505.92248535 C384.37306817 502.1497945 385.0883429 498.94352847 386.35533142 495.38095093 C388.48033142 493.94345093 388.48033142 493.94345093 390.35533142 493.38095093 C390.35533142 492.72095093 390.35533142 492.06095093 390.35533142 491.38095093 C391.78892517 489.97079468 391.78892517 489.97079468 393.79283142 488.31845093 C396.96290359 485.62920099 399.94114667 482.84581716 402.85533142 479.88095093 C408.04218698 474.63138727 413.43858779 469.79112695 419.35533142 465.38095093 C420.45327681 530.06087838 420.45327681 530.06087838 420.48033142 554.50595093 C420.48407776 555.66308594 420.48407776 555.66308594 420.48789978 556.84359741 C420.5603503 583.60102446 417.9279437 606.55412364 398.19517517 626.57235718 C383.39264441 640.33061769 364.53370331 647.1321245 344.48354483 646.69125104 C341.99733502 646.63708838 339.51180816 646.60916265 337.02511978 646.58620262 C334.13556986 646.55871481 331.24614419 646.52894114 328.35669875 646.49192059 C319.67146466 646.38076159 310.9868354 646.34966643 302.30101013 646.34024048 C301.22839637 646.33899936 301.22839637 646.33899936 300.13411364 646.33773316 C297.14710931 646.33436793 294.1601049 646.33123512 291.17309992 646.32849986 C282.30867632 646.32011349 273.44428307 646.29993074 264.57987976 646.27978516 C262.87903445 646.27600498 261.17818913 646.27223162 259.4773438 646.26846492 C235.84075183 646.21577526 212.20417663 646.15558391 188.56760788 646.09342384 C184.75905618 646.08343914 180.95050439 646.07348863 177.14195251 646.06356812 C176.1957705 646.06110212 175.24958849 646.05863613 174.27473429 646.05609541 C158.85949507 646.01612994 143.44424848 645.98346081 128.02898702 645.95345111 C112.11706626 645.92232313 96.20517637 645.88374102 80.29329038 645.83816087 C70.5189194 645.81038784 60.74457071 645.78830736 50.97017106 645.77368842 C44.29063431 645.76313562 37.6111415 645.74530213 30.93163791 645.72178389 C27.0859049 645.70845334 23.24023329 645.69825909 19.39447594 645.69673729 C15.21872993 645.6950004 11.0431829 645.67789896 6.86747742 645.65942383 C5.66515811 645.66135856 4.4628388 645.6632933 3.22408557 645.66528666 C-18.29662389 645.5232742 -37.09133696 638.66604251 -52.35829163 623.21102905 C-69.34694962 605.14190916 -70.95408718 584.77842204 -70.89863586 561.27107239 C-70.90094291 559.13588211 -70.90412107 557.00069263 -70.90809035 554.8655048 C-70.91641333 549.0234083 -70.91232443 543.18137742 -70.90611792 537.33928072 C-70.90158424 531.02905949 -70.90858172 524.71884938 -70.91407776 518.40863037 C-70.9224504 506.77030546 -70.92173442 495.13200703 -70.91625482 483.49368147 C-70.91121741 472.74135592 -70.90991325 461.98903799 -70.91230011 451.2367115 C-70.91245288 450.52260533 -70.91260565 449.80849916 -70.91276305 449.0727534 C-70.91338576 446.17374362 -70.91402256 443.27473384 -70.91468258 440.37572407 C-70.92079598 413.19953292 -70.91526082 386.02335502 -70.90448878 358.84716592 C-70.89499706 334.71755135 -70.89584822 310.58795789 -70.90541077 286.45834351 C-70.91612612 259.32933782 -70.92036339 232.20034384 -70.91418624 205.07133633 C-70.91354483 202.17801575 -70.91291915 199.28469517 -70.91230011 196.39137459 C-70.91214196 195.67899937 -70.9119838 194.96662415 -70.91182085 194.23266181 C-70.90954852 183.48798976 -70.91220156 172.74332619 -70.91725922 161.99865532 C-70.92298263 149.77893052 -70.92134544 137.55923698 -70.91069773 125.33951383 C-70.9054451 119.10617729 -70.90337739 112.87288357 -70.90999603 106.63954735 C-70.9159659 100.93085349 -70.91266316 95.22224206 -70.90204093 89.51355565 C-70.89981133 87.45116108 -70.90093328 85.38875951 -70.9057925 83.32636946 C-70.96053554 58.15642391 -66.61640448 37.64861308 -48.42982483 19.03720093 C-34.91036233 6.1434639 -18.50350943 -0.10973602 0 0 Z " fill="#004D4D" transform="translate(298.64466857910156,183.61904907226563)"/>
<path d="M0 0 C1.94348135 1.84119286 3.60760879 3.66508442 5.33105469 5.70092773 C9.62148885 10.62961921 14.25336646 15.19622442 18.91281891 19.77128792 C20.48884685 21.32026497 22.06011537 22.8739266 23.63006592 24.42906189 C28.08795174 28.84458575 32.54869482 33.25710251 37.02539062 37.65356445 C39.7783718 40.35787809 42.52136338 43.07198571 45.2582016 45.79263115 C46.29590591 46.82048783 47.33724285 47.84469137 48.38236237 48.8650074 C59.70127416 59.92088933 59.70127416 59.92088933 60.80859375 68.6796875 C60.80988281 69.81664062 60.81117188 70.95359375 60.8125 72.125 C60.84150391 73.82269531 60.84150391 73.82269531 60.87109375 75.5546875 C59.63779484 84.74130773 54.85077943 90.55599812 48.5 97 C47.80519531 97.72832031 47.11039063 98.45664062 46.39453125 99.20703125 C43.36229943 102.35347142 40.31778209 105.37755801 36.9296875 108.140625 C34.33455881 109.99341243 34.33455881 109.99341243 33.375 112.25 C32.715 112.25 32.055 112.25 31.375 112.25 C31.065625 113.0853125 31.065625 113.0853125 30.75 113.9375 C29.22288856 116.50582378 27.37795632 117.95242436 25.05836487 119.79200745 C23.25825781 121.35111251 21.78813474 123.00748894 20.25366211 124.82788086 C16.05230975 129.69010149 11.55155655 134.21727258 7.00390625 138.75390625 C6.12274643 139.6360228 5.24158661 140.51813934 4.33372498 141.42698669 C2.0092325 143.75232809 -0.31765907 146.07523618 -2.64538574 148.39733887 C-4.06144678 149.81144824 -5.47554321 151.22749121 -6.88891602 152.64428711 C-9.63028256 155.3918672 -12.37513034 158.13592106 -15.12109375 160.87890625 C-15.95466904 161.71450577 -16.78824432 162.55010529 -17.64707947 163.411026 C-21.93291391 167.67992371 -26.27839182 171.79554526 -30.9016571 175.69839478 C-32.68479746 177.30383841 -34.22459666 179.00158151 -35.7734375 180.83203125 C-41.21074376 187.23004136 -47.29649589 193.02595542 -53.25 198.9375 C-54.47679732 200.15926946 -55.70336153 201.38127305 -56.9296875 202.60351562 C-59.68061453 205.34454589 -62.43391995 208.08316283 -65.18907166 210.81994629 C-66.57443345 212.19964033 -67.95371873 213.58542761 -69.33276367 214.97143555 C-72.82382673 218.44167641 -76.52378371 221.67273299 -80.19921875 224.9453125 C-82.7513112 227.19989277 -82.7513112 227.19989277 -84.625 230.25 C-85.285 230.25 -85.945 230.25 -86.625 230.25 C-86.87045059 230.82021252 -87.11590118 231.39042503 -87.36878967 231.97791672 C-88.84310642 234.64448485 -90.57005216 236.44684696 -92.72436523 238.60333252 C-93.58246796 239.46707489 -94.44057068 240.33081726 -95.32467651 241.22073364 C-96.27754863 242.16971742 -97.23052452 243.118597 -98.18359375 244.06738281 C-99.18597237 245.07247212 -100.18792515 246.07798627 -101.18948364 247.08389282 C-103.90788187 249.81140572 -106.63256479 252.53255811 -109.35869217 255.25234318 C-112.20883767 258.09742675 -115.05410212 260.94738486 -117.90014648 263.79656982 C-122.67821018 268.57827141 -127.46047435 273.35574162 -132.24511719 278.13085938 C-137.78273538 283.65758092 -143.31309485 289.19148756 -148.83976269 294.72915769 C-153.58176799 299.48022607 -158.32764361 304.22740194 -163.07680225 308.97131991 C-165.91484365 311.80623782 -168.75150342 314.64250268 -171.58468628 317.48227692 C-174.2461056 320.14945528 -176.91233467 322.81172845 -179.58242416 325.47022629 C-180.5637676 326.44891592 -181.54339588 327.42932869 -182.52121353 328.41154099 C-183.8514118 329.74716732 -185.18833242 331.07608876 -186.52563477 332.40460205 C-187.27337662 333.15158985 -188.02111847 333.89857765 -188.79151917 334.66820145 C-190.625 336.25 -190.625 336.25 -192.625 336.25 C-192.88667969 336.83910156 -193.14835938 337.42820312 -193.41796875 338.03515625 C-194.6892275 340.36785434 -196.02730531 341.85354368 -197.9375 343.6875 C-198.88109375 344.60208984 -198.88109375 344.60208984 -199.84375 345.53515625 C-200.4315625 346.10105469 -201.019375 346.66695312 -201.625 347.25 C-202.7696875 348.425625 -202.7696875 348.425625 -203.9375 349.625 C-204.824375 350.49125 -205.71125 351.3575 -206.625 352.25 C-207.30949219 352.91902344 -207.99398437 353.58804687 -208.69921875 354.27734375 C-221.8030875 366.62156793 -237.22598955 372.76198003 -253.61572266 379.57763672 C-259.90239139 382.19449035 -266.16525348 384.86767789 -272.43182373 387.53219604 C-275.26260047 388.73496599 -278.09470122 389.93460115 -280.92675781 391.13435364 C-286.89858418 393.66459151 -292.86612239 396.20433161 -298.82324219 398.76904297 C-301.2432402 399.80959342 -303.66639895 400.84250652 -306.08984375 401.875 C-309.86131467 403.48431311 -313.61794682 405.12475187 -317.37017822 406.7782135 C-320.15306771 407.99992536 -322.94263143 409.20590426 -325.7333374 410.40963745 C-327.10048728 411.00331321 -328.46489836 411.60334355 -329.82623291 412.2102356 C-345.13503064 419.02678521 -345.13503064 419.02678521 -352.625 417.25 C-356.02562331 415.12909587 -358.81460732 412.87078535 -360.625 409.25 C-362.55511049 397.99833316 -356.89441685 388.26238494 -352.29003906 378.38671875 C-348.23143458 369.66004494 -344.39940613 360.85190596 -340.625 352 C-339.97285033 350.47431706 -339.32058573 348.94868323 -338.66821289 347.4230957 C-333.27082071 334.79359831 -327.90357686 322.15123631 -322.54995728 309.50312805 C-321.75967475 307.63752905 -320.96758851 305.77270381 -320.17529297 303.90795898 C-319.12100232 301.42033114 -318.07285117 298.93084324 -317.03173828 296.43774414 C-310.43359926 280.71049053 -301.54038862 269.29953735 -289.625 257.25 C-288.602854 256.20730957 -288.602854 256.20730957 -287.56005859 255.14355469 C-275.23053203 242.57730577 -275.23053203 242.57730577 -269.7109375 237.90625 C-265.86697127 234.58711256 -262.57842005 230.92196446 -259.22216797 227.11816406 C-254.4948767 221.89761341 -249.49971287 216.93873987 -244.52026367 211.95996094 C-242.66101257 210.09848081 -240.80996161 208.22907846 -238.95898438 206.359375 C-237.77652918 205.17399266 -236.59360438 203.98907853 -235.41015625 202.8046875 C-234.85812027 202.245466 -234.30608429 201.68624451 -233.73731995 201.1100769 C-229.85387807 197.25 -229.85387807 197.25 -227.625 197.25 C-227.21467545 196.35232438 -227.21467545 196.35232438 -226.79606152 195.4365139 C-225.66240996 193.31984893 -224.57579013 191.95164893 -222.88801575 190.26577759 C-222.33163422 189.70520157 -221.77525269 189.14462555 -221.20201111 188.56706238 C-220.59369949 187.96437027 -219.98538788 187.36167816 -219.35864258 186.74072266 C-218.71610535 186.09628708 -218.07356812 185.4518515 -217.41156006 184.78788757 C-215.28573914 182.6583619 -213.15280043 180.53612477 -211.01953125 178.4140625 C-209.53663777 176.93236166 -208.05411435 175.45029038 -206.57194519 173.96786499 C-203.46209884 170.85958327 -200.34892108 167.75469055 -197.2331543 164.65234375 C-193.25144883 160.6875761 -189.27630513 156.71631028 -185.30344105 152.74268532 C-182.24014081 149.67965797 -179.1742333 146.61925163 -176.10745811 143.55970383 C-174.64173895 142.09715434 -173.17661366 140.63400944 -171.7121067 139.17024612 C-169.65667508 137.11699914 -167.59797286 135.06708804 -165.53833008 133.01806641 C-164.94013962 132.41942276 -164.34194916 131.82077911 -163.72563171 131.20399475 C-160.949519 128.4486366 -158.14558818 125.81971182 -155.13041687 123.32699585 C-151.94535663 120.64025829 -149.31595153 117.67538365 -146.61665344 114.51000214 C-142.48128724 109.81745058 -137.98748038 105.45570936 -133.56835938 101.03222656 C-132.46520928 99.92443834 -131.36225349 98.81645659 -130.25947571 97.70829773 C-127.28475098 94.72055266 -124.30678509 91.73605995 -121.32777596 88.75258732 C-119.4636921 86.88555911 -117.60019107 85.01795105 -115.73686218 83.15016937 C-109.89736483 77.29703159 -104.05589397 71.44587422 -98.21151018 65.59761548 C-91.48089224 58.86250903 -84.75688016 52.12089783 -78.03848982 45.37359452 C-72.83084979 40.14432643 -67.61744798 34.92084858 -62.39965105 29.70171523 C-59.28889825 26.58991629 -56.18060453 23.47575376 -53.07829285 20.35553741 C-50.16279878 17.42354068 -47.24019836 14.49881747 -44.31206322 11.57944679 C-43.24162975 10.50978221 -42.17373691 9.43756791 -41.10865211 8.36257744 C-28.39331221 -4.46402148 -16.4645501 -10.97636673 0 0 Z " fill="#004E4E" transform="translate(803.625,372.75)"/>
<path d="M0 0 C1.24289303 -0.00668677 1.24289303 -0.00668677 2.51089501 -0.01350862 C3.41594144 -0.01332426 4.32098786 -0.01313989 5.25345993 -0.01294994 C6.70182255 -0.01846498 6.70182255 -0.01846498 8.17944503 -0.02409142 C11.42358409 -0.03512803 14.66769113 -0.03897206 17.91184616 -0.04278088 C20.23440274 -0.04904548 22.55695831 -0.05569227 24.87951279 -0.0626936 C31.19572386 -0.08010193 37.51192736 -0.09065465 43.82815647 -0.09889913 C47.77343057 -0.10404903 51.71870232 -0.11012473 55.66397476 -0.11641026 C66.59123186 -0.13327791 77.51848688 -0.14791328 88.445755 -0.155159 C91.27999243 -0.15706882 94.11422986 -0.15898916 96.94846725 -0.16094494 C98.00509007 -0.16167055 98.00509007 -0.16167055 99.0830588 -0.16241082 C110.49410264 -0.17071116 121.90504165 -0.19604961 133.31603971 -0.22852562 C145.0366957 -0.26161051 156.75729843 -0.27960898 168.47800136 -0.28280324 C175.05667931 -0.2851554 181.63519149 -0.294138 188.21382523 -0.31926441 C194.40263389 -0.34252029 200.59116731 -0.34678816 206.78000832 -0.33650303 C209.05036649 -0.33600698 211.3207381 -0.34234763 213.59105492 -0.35605907 C216.69312758 -0.37374443 219.79420887 -0.36668775 222.8962822 -0.35352612 C223.79240573 -0.36449536 224.68852927 -0.37546461 225.61180806 -0.38676625 C232.07937712 -0.32062111 237.631635 1.02787865 242.39135766 5.65233535 C246.69137352 10.67759438 247.17758188 13.91843352 247.11008835 20.37250233 C246.59170293 25.46275917 243.99651127 28.08331545 240.32883835 31.38422108 C236.70480195 33.92104656 234.07985823 35.38278405 229.61082458 35.39148998 C228.77177904 35.39793887 227.9327335 35.40438777 227.06826234 35.41103208 C226.15154307 35.40793488 225.2348238 35.40483767 224.29032516 35.40164661 C222.82358656 35.40844328 222.82358656 35.40844328 221.32721686 35.41537726 C218.04157688 35.42806552 214.75610172 35.42639802 211.47043991 35.42474842 C209.11832592 35.43073096 206.76621389 35.43753587 204.41410446 35.44510365 C198.0173035 35.46280018 191.62055602 35.46746061 185.22373295 35.46873522 C180.55826851 35.46988863 175.89281315 35.47619038 171.22735302 35.48240817 C158.68043247 35.49902139 146.1335403 35.50649239 133.58660915 35.5050687 C132.87409362 35.50498879 132.16157808 35.50490888 131.42747116 35.50482655 C130.71408411 35.50474478 130.00069705 35.50466302 129.2656922 35.50457878 C117.70914567 35.50376621 106.15272958 35.52289594 94.59622076 35.55110328 C82.72639594 35.57984636 70.8566347 35.59364274 58.98677421 35.59191573 C52.32428261 35.59125223 45.66190855 35.59711617 38.99943924 35.61827183 C32.73182424 35.63762944 26.46449787 35.63779533 20.19687271 35.62323856 C17.89749353 35.62114621 15.5980964 35.62587662 13.29874802 35.63795948 C10.15725458 35.65339726 7.0167581 35.64411266 3.8752861 35.6286974 C2.96748972 35.63898452 2.05969334 35.64927165 1.12438798 35.65987051 C-5.99449661 35.58279175 -11.44474923 33.8606335 -16.54616165 28.75922108 C-19.7551555 23.57546179 -20.64044247 19.36353533 -19.77272415 13.38031483 C-18.3893124 8.21497876 -15.61037825 5.01537409 -11.10866165 2.25922108 C-7.29949545 0.80039147 -4.07937642 0.01021749 0 0 Z " fill="#004E4E" transform="translate(341.1711616516113,434.86577892303467)"/>
<path d="M0 0 C1.7323225 -0.00514564 3.46463975 -0.01243176 5.19694519 -0.02168274 C9.87669215 -0.0401202 14.55586581 -0.0273079 19.23558855 -0.00759244 C24.1445632 0.0088536 29.05350324 -0.00002686 33.9624939 -0.00511169 C42.20213935 -0.00962515 50.44155723 0.00619289 58.68115234 0.03417969 C68.19595234 0.06624944 77.71034251 0.06620514 87.22517169 0.04896492 C96.39610134 0.03308271 105.56688128 0.03984293 114.73780441 0.05690193 C118.6331724 0.06375944 122.52841992 0.06275342 126.42378616 0.05535698 C131.01226178 0.0476764 135.60027273 0.05987793 140.1886692 0.08720589 C141.86881316 0.09407143 143.54900066 0.09420738 145.22914314 0.08699036 C163.08010712 0.01916646 163.08010712 0.01916646 169.27857399 6.14903927 C173.82528146 11.35862417 174.08939239 14.90751847 174.02490234 21.64672852 C173.53070243 26.8907387 171.03726849 29.4369963 167.30615234 32.88110352 C162.36921439 36.2526709 158.47168264 36.88226737 152.51457214 36.89179993 C151.43857292 36.89753825 151.43857292 36.89753825 150.34083635 36.90339249 C147.94272536 36.91369211 145.54485516 36.90973615 143.14672852 36.90576172 C141.4250008 36.91010994 139.70327503 36.91529346 137.98155212 36.92124939 C133.30788458 36.93464042 128.63429791 36.93521782 123.96061492 36.93268609 C120.05666081 36.93161621 116.15272305 36.93650032 112.24877244 36.94129151 C103.03603442 36.95238758 93.82333717 36.95282388 84.6105957 36.94677734 C75.11357823 36.94073992 65.616709 36.95304247 56.11971682 36.97434741 C47.96073787 36.99197625 39.80180603 36.99796265 31.64280874 36.99470967 C26.77221447 36.99289833 21.9017259 36.99551791 17.03114891 37.00942421 C12.44858825 37.02201836 7.86625814 37.02004342 3.28370094 37.00701332 C1.60515896 37.00465125 -0.07339932 37.00736896 -1.75192261 37.01563644 C-19.09125319 37.09485774 -19.09125319 37.09485774 -26.56884766 32.08032227 C-30.69677088 27.77084686 -31.76037653 24.49738467 -31.94384766 18.50610352 C-31.62755594 13.11764282 -31.35860673 9.44034408 -27.25634766 5.63110352 C-18.78696507 -0.40614233 -9.92855514 -0.07519796 0 0 Z " fill="#004E4E" transform="translate(352.25634765625,523.368896484375)"/>
<path d="M0 0 C0.72126751 -0.00297112 1.44253501 -0.00594224 2.18565911 -0.0090034 C4.60296643 -0.01767629 7.02022414 -0.01919745 9.43754578 -0.02069092 C11.17059942 -0.02532007 12.90365205 -0.03034486 14.63670349 -0.03573608 C19.34546376 -0.04885222 24.05420978 -0.05530344 28.76298547 -0.05974674 C31.70520421 -0.06267856 34.64741906 -0.06678357 37.58963585 -0.07125092 C46.79629445 -0.08492339 56.00294415 -0.09459143 65.20961219 -0.09845281 C75.83538335 -0.10293394 86.4610259 -0.12048549 97.08675796 -0.1494534 C105.3017447 -0.1710714 113.51669525 -0.18115714 121.73171014 -0.18249393 C126.63750827 -0.18354181 131.54318546 -0.18944623 136.44895363 -0.20731354 C141.06431524 -0.22379636 145.67946502 -0.22594869 150.29484558 -0.21717453 C151.98671219 -0.21640429 153.6785902 -0.22074521 155.37042809 -0.23063278 C157.68454061 -0.24336164 159.99790389 -0.23747089 162.31201172 -0.22705078 C164.25242828 -0.22925062 164.25242828 -0.22925062 166.23204517 -0.2314949 C171.09530596 0.26894986 175.08961216 1.56905892 178.80741882 4.89434814 C179.50737976 5.78960205 179.50737976 5.78960205 180.22148132 6.70294189 C180.94464539 7.60206299 180.94464539 7.60206299 181.68241882 8.51934814 C184.85254044 12.93411482 184.38028746 17.89876222 183.84648132 23.14044189 C181.10130364 28.73247051 176.66458037 32.84082053 170.84648132 35.14044189 C167.57833385 35.3977108 167.57833385 35.3977108 163.61703491 35.40786743 C162.8876003 35.41239854 162.15816569 35.41692966 161.406627 35.42159808 C158.96162803 35.4342615 156.51685126 35.43262047 154.07182312 35.43096924 C152.31906345 35.43695332 150.56630641 35.44375859 148.81355286 35.45132446 C144.05106083 35.46900494 139.28864066 35.47368073 134.52611899 35.47495604 C130.55004517 35.47685489 126.57398809 35.48421236 122.59792072 35.49130023 C113.21600326 35.50758993 103.83412419 35.51246869 94.45219421 35.51104736 C84.77621064 35.50984609 75.10045017 35.53094377 65.42452306 35.56253469 C57.11611084 35.58869359 48.8077715 35.5994148 40.49931842 35.59813654 C35.53759949 35.59762675 30.57607876 35.60331933 25.61440086 35.62449265 C20.94644934 35.64386823 16.2788852 35.64400415 11.61091995 35.62945938 C9.89970267 35.62736927 8.18846119 35.63208428 6.47728539 35.6441803 C4.13669622 35.65965105 1.79743977 35.65031387 -0.54312134 35.63491821 C-1.85148107 35.63600775 -3.15984079 35.63709728 -4.50784779 35.63821983 C-10.8183824 34.77658284 -16.05710624 31.35670925 -20.04414368 26.39434814 C-22.42631113 21.55452202 -22.03166226 16.34377029 -21.15351868 11.14044189 C-19.1353032 6.33282291 -15.8872083 3.32522172 -11.15351868 1.14044189 C-7.45053609 -0.07894254 -3.87728395 0.00892363 0 0 Z " fill="#004D4D" transform="translate(342.1535186767578,345.85955810546875)"/>
<path d="M0 0 C0.98265839 -0.00708481 1.96531677 -0.01416962 2.97775269 -0.02146912 C4.04438644 -0.0189917 5.1110202 -0.01651428 6.2099762 -0.01396179 C7.34223633 -0.01907272 8.47449646 -0.02418365 9.6410675 -0.02944946 C13.38357327 -0.04334865 17.12589496 -0.04238847 20.86842346 -0.04008484 C23.47007313 -0.04397145 26.07172216 -0.04830604 28.67337036 -0.05307007 C34.12651393 -0.0605329 39.57958615 -0.06037876 45.0327301 -0.05497742 C51.32835889 -0.04893732 57.6237642 -0.06125179 63.91935486 -0.08254749 C69.98541626 -0.10230924 76.05137339 -0.10533471 82.11746407 -0.10181236 C84.69426562 -0.10232592 87.27107072 -0.10757004 89.84785271 -0.11762428 C93.45050669 -0.12995645 97.05264304 -0.12321585 100.6552887 -0.11161804 C101.71989822 -0.11926178 102.78450775 -0.12690552 103.88137817 -0.13478088 C110.10372398 -0.09049225 114.87787927 0.34871535 119.64186096 4.79585266 C124.42198975 11.04679031 124.69768521 15.44673004 123.99732971 23.26069641 C122.70748977 27.65081428 120.28129312 30.33438601 116.37232971 32.63569641 C115.25857971 33.17194641 114.14482971 33.70819641 112.99732971 34.26069641 C112.00732971 34.75569641 112.00732971 34.75569641 110.99732971 35.26069641 C109.47781287 35.35930077 107.95405391 35.3957358 106.43135071 35.40113831 C105.46964462 35.40684845 104.50793854 35.41255859 103.51708984 35.41844177 C102.45837173 35.41955963 101.39965363 35.42067749 100.30885315 35.42182922 C98.64038078 35.42927658 98.64038078 35.42927658 96.9382019 35.43687439 C93.2443633 35.45152485 89.55056765 35.45830325 85.85670471 35.46382141 C83.2956085 35.46957102 80.73451231 35.47532878 78.17341614 35.48109436 C73.48441329 35.49026724 68.79542769 35.49656384 64.10641742 35.49959111 C57.2098693 35.50406813 50.31351975 35.52159784 43.417032 35.55059171 C37.44122374 35.5748408 31.46550916 35.58253685 25.48964691 35.58426666 C22.94912384 35.58729549 20.40860165 35.59533169 17.86811066 35.60845184 C14.31304891 35.62549908 10.7584704 35.62363486 7.2033844 35.61714172 C6.15276321 35.62635651 5.10214203 35.63557129 4.01968384 35.64506531 C-3.02528116 35.60474149 -7.3952799 34.63105131 -12.75267029 29.76069641 C-17.50081835 24.48497634 -17.60424908 20.72229584 -17.51829529 13.79585266 C-16.84515967 9.18079405 -15.25683547 6.95550248 -12.02220154 3.71382141 C-8.20362413 0.96621833 -4.66559597 0.01126282 0 0 Z " fill="#004D4D" transform="translate(338.00267028808594,612.7393035888672)"/>
<path d="M0 0 C3.10699073 1.35261234 4.87539092 2.75243567 7 5.375 C10.15789611 9.11819582 13.51455832 12.56734356 17 16 C20.89955915 19.85056821 24.60829692 23.76428073 28.16015625 27.94140625 C30.50493544 30.56497023 32.99607456 33.03015015 35.5 35.5 C39.41802084 39.36951714 43.13193895 43.3121029 46.66015625 47.5390625 C47.95639013 49.12690811 47.95639013 49.12690811 50 50 C50 50.66 50 51.32 50 52 C48.865625 52.45890625 47.73125 52.9178125 46.5625 53.390625 C45.04159926 54.01025123 43.52076972 54.63005228 42 55.25 C41.25621094 55.55035156 40.51242187 55.85070312 39.74609375 56.16015625 C35.33316603 57.96370062 31.07288519 59.93668916 26.82714844 62.10253906 C24.32077977 63.3336202 21.74842525 64.29731983 19.125 65.25 C12.65641939 67.67666565 6.37555062 70.45110701 0.09228516 73.32128906 C-0.64070801 73.65354492 -1.37370117 73.98580078 -2.12890625 74.328125 C-2.77931885 74.6262207 -3.42973145 74.92431641 -4.09985352 75.23144531 C-9.2391401 77.31013915 -14.51948464 77.75379257 -20 77 C-23.12568652 75.02252485 -24.57005672 73.65251144 -25.51342773 70.02661133 C-26.31859154 64.04016183 -25.44040164 60.08817859 -23 54.625 C-22.65622314 53.81063477 -22.31244629 52.99626953 -21.95825195 52.15722656 C-21.14785854 50.24756295 -20.327067 48.34229392 -19.49853516 46.44042969 C-17.72407634 42.3665174 -15.97655374 38.28144618 -14.23046875 34.1953125 C-12.22572909 29.5053017 -10.21829967 24.81658496 -8.19335938 20.13525391 C-7.87377762 19.39499969 -7.55419586 18.65474548 -7.22492981 17.89205933 C-6.62565109 16.50460403 -6.02492916 15.11777073 -5.42240906 13.73171997 C-3.46874206 9.20354168 -1.70334317 4.62836353 0 0 Z " fill="#3BBBB8" transform="translate(516,665)"/>
<path d="M0 0 C3.25207092 1.41738489 5.31361067 3.12526412 7.75 5.6875 C10.4302304 8.44231937 13.14581567 11.05924859 16.0625 13.5625 C19.90010534 16.86585048 23.45754982 20.38590476 27 24 C28.66587236 25.66746059 30.33265385 27.3340131 32 29 C38.66666667 35.66666667 45.33333333 42.33333333 52 49 C49.97885812 53.44953329 46.99028627 56.3409448 43.5625 59.75 C42.97662109 60.35199219 42.39074219 60.95398438 41.78710938 61.57421875 C41.21927734 62.14269531 40.65144531 62.71117187 40.06640625 63.296875 C39.2921228 64.07562988 39.2921228 64.07562988 38.50219727 64.87011719 C37 66 37 66 34 66 C34 65.34 34 64.68 34 64 C33.4114473 63.73643707 32.82289459 63.47287415 32.21650696 63.20132446 C29.90442271 61.94819807 28.38828575 60.63580437 26.53588867 58.77880859 C25.54917427 57.79670914 25.54917427 57.79670914 24.54252625 56.79476929 C23.84142227 56.0864798 23.1403183 55.37819031 22.41796875 54.6484375 C21.68556473 53.91557526 20.95316071 53.18271301 20.19856262 52.42764282 C18.64880153 50.87486171 17.10147055 49.31965197 15.55639648 47.76220703 C13.21187332 45.39956172 10.85958252 43.04488265 8.50585938 40.69140625 C6.99692583 39.17755167 5.48844785 37.66324283 3.98046875 36.1484375 C3.28543747 35.4522934 2.59040619 34.75614929 1.87431335 34.03890991 C-2.04751279 30.07958647 -5.77926711 26.02919751 -9.35868835 21.75650024 C-11.09330512 19.90014665 -12.92883224 18.46405555 -15 17 C-13.67879172 14.06769807 -12.25361803 12.01335101 -9.9609375 9.765625 C-9.38085938 9.19199219 -8.80078125 8.61835938 -8.203125 8.02734375 C-7.59984375 7.44082031 -6.9965625 6.85429687 -6.375 6.25 C-5.76398437 5.64800781 -5.15296875 5.04601562 -4.5234375 4.42578125 C-3.02011376 2.94594695 -1.51065144 1.47235324 0 0 Z " fill="#3BBBB8" transform="translate(749,433)"/>
<path d="M0 0 C9.73091006 0.49902103 16.74290196 8.2825705 23 15 C22.34 15.66 21.68 16.32 21 17 C21 16.34 21 15.68 21 15 C20.01 14.67 19.02 14.34 18 14 C16.81640625 12.58203125 16.81640625 12.58203125 15.5625 10.8125 C11.47732968 5.78139966 5.81441631 3.56850429 0 1 C0 0.67 0 0.34 0 0 Z " fill="#064445" transform="translate(590,186)"/>
<path d="M0 0 C0.66 0 1.32 0 2 0 C0.42219077 3.71045247 -1.90703248 6.29906384 -4.625 9.25 C-5.44226563 10.14203125 -6.25953125 11.0340625 -7.1015625 11.953125 C-7.72804688 12.62859375 -8.35453125 13.3040625 -9 14 C-9.66 13.67 -10.32 13.34 -11 13 C-9.54300902 11.20724155 -8.08436345 9.41582771 -6.625 7.625 C-5.40683594 6.12839844 -5.40683594 6.12839844 -4.1640625 4.6015625 C-2 2 -2 2 0 0 Z " fill="#034141" transform="translate(509,635)"/>
<path d="M0 0 C5.11365014 1.0681847 10.07227969 2.23107476 15 4 C15 4.33 15 4.66 15 5 C14.38511719 4.91621094 13.77023437 4.83242188 13.13671875 4.74609375 C12.32847656 4.64425781 11.52023437 4.54242187 10.6875 4.4375 C9.88699219 4.33308594 9.08648437 4.22867188 8.26171875 4.12109375 C5.83182884 3.85244822 5.83182884 3.85244822 3 5 C3 4.01 3 3.02 3 2 C2.01 1.67 1.02 1.34 0 1 C0 0.67 0 0.34 0 0 Z " fill="#41C9C5" transform="translate(271,824)"/>
<path d="M0 0 C1 2 1 2 1 5 C0.01 5.495 0.01 5.495 -1 6 C-1 6.66 -1 7.32 -1 8 C-2.98 8.33 -4.96 8.66 -7 9 C-6.02180976 7.68677212 -5.0424189 6.37443848 -4.0625 5.0625 C-3.51722656 4.33160156 -2.97195313 3.60070312 -2.41015625 2.84765625 C-1 1 -1 1 0 0 Z " fill="#3FC5C1" transform="translate(525,549)"/>
<path d="M0 0 C0.66 0 1.32 0 2 0 C2.25 2.75 2.25 2.75 2 6 C0 8.375 0 8.375 -2 10 C-3 8 -3 8 -2.44140625 6.0546875 C-2.15136719 5.33539062 -1.86132812 4.61609375 -1.5625 3.875 C-1.27503906 3.15054688 -0.98757813 2.42609375 -0.69140625 1.6796875 C-0.46324219 1.12539063 -0.23507812 0.57109375 0 0 Z " fill="#024646" transform="translate(454,745)"/>
<path d="M0 0 C0.33 0.99 0.66 1.98 1 3 C0.07421875 4.82421875 0.07421875 4.82421875 -1.3125 6.6875 C-1.76238281 7.31011719 -2.21226562 7.93273437 -2.67578125 8.57421875 C-3.11277344 9.04472656 -3.54976562 9.51523437 -4 10 C-4.66 10 -5.32 10 -6 10 C-6 9.01 -6 8.02 -6 7 C-5.01 6.34 -4.02 5.68 -3 5 C-3 3.68 -3 2.36 -3 1 C-2.01 0.67 -1.02 0.34 0 0 Z " fill="#40C4C2" transform="translate(677,772)"/>
<path d="M0 0 C1.9375 0.8125 1.9375 0.8125 4 2 C4.33 2.99 4.66 3.98 5 5 C3.02 5.33 1.04 5.66 -1 6 C-0.67 4.02 -0.34 2.04 0 0 Z " fill="#40C5C3" transform="translate(516,665)"/>
<path d="M0 0 C1.1055189 0.93590504 2.20935453 1.87379858 3.3125 2.8125 C3.92738281 3.33457031 4.54226563 3.85664063 5.17578125 4.39453125 C6.85424679 5.87172469 8.43882034 7.40039131 10 9 C5.74257863 8.52695318 3.74294902 6.1136178 1 3 C0.67 2.01 0.34 1.02 0 0 Z " fill="#3DC2BF" transform="translate(321,371)"/>
<path d="M0 0 C0.99 0.33 1.98 0.66 3 1 C1.75023244 4.65316671 1.32901247 5.78065836 -2 8 C-1.125 1.125 -1.125 1.125 0 0 Z " fill="#014142" transform="translate(858,456)"/>
</svg>
